<svg version="1.1" id="Layer_1" xmlns="http://www.w3.org/2000/svg" xmlns:xlink="http://www.w3.org/1999/xlink" x="0px" y="0px"
	 width="100%" viewBox="0 0 320 304" enable-background="new 0 0 320 304" xml:space="preserve">
<path fill="#FFFFFF" opacity="1.000000" stroke="none" 
	d="
M276.356934,114.631271 
	C279.812103,117.527565 280.413147,120.414299 279.908051,124.842796 
	C278.922028,133.487640 277.819519,142.375595 280.544464,151.023468 
	C280.917358,152.206863 281.036316,153.375290 280.388214,154.399536 
	C276.996033,159.760513 277.373901,165.911041 277.270111,171.752060 
	C277.173492,177.189423 274.824219,182.570419 276.745911,188.084991 
	C276.945526,188.657700 276.395111,189.744476 275.872101,190.279221 
	C263.402954,203.028336 253.291824,217.736618 241.773285,231.273544 
	C239.950119,233.416183 237.982803,235.492020 237.201752,238.347031 
	C236.759384,239.964111 235.542755,240.893219 233.901596,240.946060 
	C226.096161,241.197403 219.217499,245.124161 211.690750,246.483109 
	C209.366135,246.902802 208.192078,248.698578 207.136185,250.725906 
	C205.293564,254.263855 202.167679,255.286423 198.726608,253.470535 
	C195.746841,251.898071 192.964539,251.916214 190.120712,253.184326 
	C176.814468,259.117767 164.095108,257.954681 151.079880,251.547653 
	C139.001526,245.601868 126.119865,241.229156 113.407486,236.932938 
	C106.838631,234.712982 104.178596,230.366501 100.574821,225.923370 
	C95.822350,220.063950 93.042778,212.456421 85.601730,208.944000 
	C85.071709,208.693802 84.578651,207.981445 84.418068,207.389191 
	C81.338036,196.029877 72.332413,188.631271 65.797127,179.594330 
	C64.814278,178.235245 64.485001,177.100266 64.672134,175.516296 
	C65.703575,166.785797 66.708900,158.051331 67.611198,149.306686 
	C68.634933,139.385040 70.357536,129.437866 70.195518,119.527634 
	C70.096008,113.440651 72.659645,109.768845 75.759674,105.307892 
	C80.678673,98.229424 85.171097,90.714622 90.194763,83.808533 
	C94.856522,77.399963 101.373032,72.049675 107.137886,66.298538 
	C109.139244,64.301926 111.387932,62.525162 112.516975,59.814785 
	C113.079231,58.465023 114.067223,57.589180 115.515862,57.507309 
	C121.884865,57.147388 127.795586,54.620735 134.039368,53.655819 
	C137.323685,53.148258 140.572388,52.441818 142.875778,49.591652 
	C143.446121,48.885914 144.643570,48.127991 145.431046,48.241123 
	C156.080231,49.771111 164.648926,43.322754 174.217880,40.777073 
	C176.061371,40.286640 177.452225,40.043381 179.380539,40.661591 
	C187.607605,43.299145 195.947418,45.583824 204.233078,48.041058 
	C205.623764,48.453491 206.823013,48.246895 208.046036,47.546726 
	C209.630157,46.639812 211.232956,47.138611 212.001312,48.496719 
	C214.209030,52.398838 218.167999,53.355358 221.848022,54.761383 
	C228.379959,57.257030 234.346664,61.061119 241.112915,63.006798 
	C242.462311,63.394814 243.247070,64.408119 243.958221,65.623283 
	C253.803223,82.446014 265.800018,97.850067 276.356934,114.631271 
M146.096313,162.550629 
	C151.271530,159.230286 156.392334,155.820938 161.636765,152.613785 
	C167.247345,149.182724 167.702515,144.917892 162.541702,140.819443 
	C151.342880,131.925964 140.086319,123.104797 128.804977,114.316162 
	C127.304398,113.147141 125.928108,111.447289 123.645111,111.861023 
	C121.622482,116.234589 119.035057,175.374344 120.868843,179.026993 
	C129.093109,173.643585 137.283173,168.282562 146.096313,162.550629 
M182.421677,125.804573 
	C180.959381,129.869766 179.473267,133.926590 178.041245,138.002426 
	C176.491684,142.412857 178.523682,145.551025 183.233185,145.890366 
	C196.802185,146.868073 210.370041,147.882614 223.951523,148.649353 
	C226.735504,148.806519 230.576157,150.460663 232.164185,147.217041 
	C233.610321,144.263168 230.529648,141.720993 228.962585,139.298172 
	C222.011383,128.550949 214.927567,117.889084 207.842606,107.228973 
	C204.121765,101.630539 200.299774,96.099319 195.820923,89.503082 
	C191.157135,102.138832 186.926376,113.601387 182.421677,125.804573 
M163.700562,137.884796 
	C170.678360,142.789139 173.523361,141.788239 176.368973,133.657425 
	C179.228500,125.486763 182.287003,117.385948 185.186646,109.229042 
	C187.499161,102.723740 189.703949,96.180145 192.476700,88.146530 
	C169.493301,94.545631 147.979889,100.535446 126.466484,106.525269 
	C126.480247,107.106857 126.494011,107.688438 126.507774,108.270027 
	C138.716217,117.990601 150.924667,127.711174 163.700562,137.884796 
M182.645325,189.767715 
	C180.087021,179.788300 177.518661,169.811432 174.973862,159.828583 
	C173.178284,152.784927 169.530060,151.333725 163.376877,155.298218 
	C155.401337,160.436798 147.433212,165.587173 139.491837,170.778290 
	C133.855164,174.462860 128.268051,178.223206 121.712875,182.578171 
	C128.280350,185.092514 133.658890,187.177032 139.055771,189.212936 
	C153.068222,194.498947 167.056000,199.853317 181.124619,204.985794 
	C185.755280,206.675140 187.059204,205.333618 185.834763,200.583832 
	C184.964462,197.207764 183.815201,193.903580 182.645325,189.767715 
M187.533081,149.401825 
	C186.536789,149.355011 185.540894,149.296661 184.544159,149.263245 
	C177.640411,149.031708 175.779175,151.427795 177.578491,157.993103 
	C181.441788,172.089554 185.240143,186.203827 189.057632,200.312805 
	C189.479919,201.873566 189.479813,203.677307 191.521286,204.305023 
	C193.688156,203.542542 194.863525,201.644669 196.219971,200.014236 
	C200.684479,194.647903 205.043320,189.193787 209.492050,183.814148 
	C216.052261,175.881241 222.673874,167.999054 229.223846,160.057724 
	C230.582367,158.410614 232.143524,156.719620 231.315765,154.268860 
	C230.738754,152.560501 229.251114,152.281540 227.698792,152.172028 
	C214.620804,151.249512 201.542999,150.324356 187.533081,149.401825 
M234.000534,91.686638 
	C222.900299,91.002937 211.922195,88.591949 200.920944,88.468323 
	C200.395401,90.633484 201.213638,91.552567 201.837708,92.499634 
	C212.191177,108.212044 222.544281,123.924782 232.951843,139.601364 
	C234.013016,141.199783 234.891510,143.564697 237.260651,143.248749 
	C239.768875,142.914230 240.356796,140.417328 241.001663,138.389313 
	C245.185638,125.231445 249.246689,112.034355 253.460800,98.886261 
	C254.773209,94.791542 253.143845,93.492775 249.250671,93.288002 
	C244.449432,93.035461 239.668457,92.397820 234.000534,91.686638 
M243.399933,180.952072 
	C241.987976,174.802368 240.585663,168.650421 239.157257,162.504532 
	C238.798859,160.962402 239.200424,158.939270 237.093796,158.355850 
	C234.915039,157.752441 233.771637,159.354782 232.592819,160.784195 
	C220.947388,174.904892 209.291656,189.017075 197.655640,203.145508 
	C196.621078,204.401657 195.336258,205.600311 195.764938,207.447662 
	C196.411942,208.496490 197.398209,208.668121 198.413696,208.667175 
	C213.893997,208.652847 229.374283,208.615234 244.854584,208.607376 
	C247.967407,208.605789 248.841507,207.430801 248.100983,204.237930 
	C246.376968,196.804459 245.049957,189.278931 243.399933,180.952072 
M172.172104,218.624222 
	C176.132675,216.010132 180.853790,214.516632 184.854691,210.043747 
	C163.553177,201.897583 142.947968,193.729431 120.575096,186.126709 
	C126.716881,203.475357 132.264893,219.142990 137.809570,234.811813 
	C139.002365,238.182541 141.024338,237.369812 143.292419,235.995697 
	C152.692352,230.300629 162.119232,224.650040 172.172104,218.624222 
M132.510178,84.984283 
	C130.046112,90.638313 127.582039,96.292336 125.117973,101.946365 
	C125.557678,102.265564 125.997383,102.584755 126.437080,102.903954 
	C147.667542,97.403145 168.793564,91.532486 190.527969,84.947189 
	C188.921249,83.547188 188.136383,82.698914 187.202042,82.074165 
	C175.723465,74.398911 164.267548,66.688248 152.709061,59.134727 
	C147.119629,55.482018 145.361557,56.111973 142.528259,62.394009 
	C139.244949,69.673820 136.080215,77.007133 132.510178,84.984283 
M96.357513,128.872391 
	C91.497246,132.926514 86.695610,137.053864 81.756302,141.009277 
	C78.411118,143.688141 78.641663,146.067368 81.724060,148.738571 
	C87.513779,153.755890 93.214149,158.876221 98.960205,163.944061 
	C104.277794,168.634003 109.606522,173.311340 116.144287,179.062012 
	C117.263245,155.796814 118.312874,133.973068 119.362503,112.149330 
	C118.831177,111.987106 118.299843,111.824883 117.768509,111.662651 
	C110.231697,116.491287 104.060158,123.092201 96.357513,128.872391 
M233.118942,221.576828 
	C236.736435,218.618042 241.202026,216.637756 244.273163,212.530426 
	C241.832169,210.949173 239.616074,211.395905 237.524704,211.388031 
	C224.884277,211.340469 212.242905,211.284256 199.603287,211.395584 
	C194.230576,211.442902 192.585144,213.155029 193.680649,217.428635 
	C195.372009,224.026505 197.217285,230.593369 199.269714,237.087280 
	C200.650070,241.454697 204.994507,242.862289 208.733612,240.110229 
	C216.763855,234.199875 224.626099,228.061249 233.118942,221.576828 
M197.053818,240.650085 
	C194.897476,233.163177 192.796875,225.659576 190.563019,218.195862 
	C189.305786,213.995193 187.488205,213.372513 183.543289,215.703033 
	C171.967178,222.541763 160.404160,229.403122 148.881744,236.331680 
	C147.596603,237.104431 145.713593,237.440567 145.444275,239.610001 
	C146.116943,239.842087 146.714249,240.168671 147.342590,240.247314 
	C162.135345,242.098633 176.930084,243.934311 191.727982,245.744141 
	C194.992264,246.143372 196.708328,244.502426 197.053818,240.650085 
M273.547455,147.697311 
	C267.545685,132.099792 263.580383,115.778572 256.710449,99.132050 
	C251.292419,114.202713 247.253983,128.403168 243.359146,142.628342 
	C242.279358,146.572083 244.501404,149.168945 248.872299,149.858429 
	C255.830078,150.955994 262.828369,150.567291 269.807007,150.846436 
	C271.542236,150.915833 273.206329,150.661865 273.547455,147.697311 
M249.419815,88.524750 
	C238.033752,78.550133 226.737961,68.469650 215.219971,58.649761 
	C210.173996,54.347713 209.680786,54.667835 207.105957,61.017159 
	C204.792480,66.722023 202.473679,72.425072 200.219162,78.153297 
	C199.503998,79.970413 198.465805,81.785942 199.437897,84.275742 
	C201.667648,84.699829 204.069183,85.309082 206.508621,85.594688 
	C218.356750,86.981827 230.202164,88.425270 242.080292,89.496468 
	C244.548447,89.719048 247.398636,91.426727 249.419815,88.524750 
M248.020645,186.735031 
	C249.160263,192.341324 250.299881,197.947617 251.496948,203.836502 
	C252.273880,203.252716 252.635849,203.122070 252.745789,202.877945 
	C259.287964,188.349838 265.788605,173.802994 272.347412,159.282425 
	C273.970795,155.688431 272.539612,154.329407 269.007202,154.283691 
	C262.532318,154.199890 256.078827,153.870499 249.618530,153.321106 
	C243.604782,152.809692 241.274643,156.003494 242.604477,162.095306 
	C244.337234,170.032761 246.050690,177.974411 248.020645,186.735031 
M132.786819,231.168915 
	C128.102219,217.476257 123.379799,203.796356 118.761116,190.081497 
	C117.682373,186.878220 116.232185,186.080948 113.367104,188.277298 
	C107.819115,192.530396 102.132309,196.602036 96.566330,200.832169 
	C92.037422,204.274139 92.007774,206.156998 96.729858,209.619995 
	C104.782509,215.525497 112.963333,221.256760 121.112534,227.029846 
	C124.984680,229.772964 128.908020,232.443832 132.782806,235.129868 
	C133.908340,233.669296 133.174149,232.766785 132.786819,231.168915 
M186.507797,53.265636 
	C175.485062,53.608868 164.462341,53.952099 153.439606,54.295330 
	C153.307816,54.706356 153.176010,55.117386 153.044220,55.528416 
	C166.615982,64.529839 180.187759,73.531265 193.839798,82.585922 
	C194.604141,81.773605 195.225464,81.382401 195.455154,80.828720 
	C198.762009,72.857613 202.066895,64.884819 205.257446,56.866756 
	C206.497055,53.751518 204.425232,53.019848 201.951630,53.020367 
	C197.135910,53.021385 192.320236,53.147312 186.507797,53.265636 
M111.746353,179.747742 
	C100.907234,170.090790 90.068115,160.433838 78.933853,150.513931 
	C78.496071,151.797379 78.249344,152.135071 78.305611,152.410950 
	C81.461243,167.882767 84.622849,183.353424 87.843933,198.811691 
	C88.266640,200.840332 89.640999,201.799515 91.502037,200.429413 
	C98.473877,195.296783 105.387405,190.083603 112.263412,184.823013 
	C114.089584,183.425873 114.050499,181.754135 111.746353,179.747742 
M106.175400,93.313919 
	C109.158287,95.434952 112.109497,97.602356 115.131462,99.666176 
	C119.695160,102.782928 121.095085,102.350227 123.387764,97.279411 
	C128.800964,85.306778 134.227554,73.340172 139.611145,61.354248 
	C140.044724,60.388927 141.100662,59.416870 139.664307,57.666630 
	C125.227325,66.491852 110.746803,75.343697 95.981163,84.369827 
	C99.058632,88.407661 102.798027,90.118843 106.175400,93.313919 
M92.709526,90.431046 
	C87.034554,105.578148 83.250557,121.236801 79.846581,137.226120 
	C91.893723,128.246124 103.276901,118.907372 114.487564,109.365906 
	C116.532524,107.625435 116.332138,105.012451 114.083458,103.285828 
	C108.275780,98.826462 102.359398,94.507896 96.454010,90.177292 
	C95.489662,89.470108 94.349136,89.145897 92.709526,90.431046 
M77.410538,163.071030 
	C76.187721,160.313446 77.031265,156.824448 73.943115,153.821335 
	C72.912819,160.938812 69.589386,166.931747 69.648582,173.591949 
	C69.736916,183.529617 78.473587,188.341522 82.592178,195.925018 
	C82.952171,195.748627 83.312172,195.572220 83.672165,195.395828 
	C81.636864,184.894943 79.601555,174.394043 77.410538,163.071030 
M250.070953,216.035568 
	C250.465393,215.233124 251.506454,214.487885 249.913544,213.201187 
	C237.931870,222.263870 225.878296,231.380920 212.805710,241.268723 
	C223.177017,241.326950 232.454865,237.265137 237.599716,231.103577 
	C241.643723,226.260422 245.664917,221.398239 250.070953,216.035568 
M159.507523,249.945465 
	C170.598099,255.384705 180.564255,255.011902 190.549149,248.649780 
	C177.374954,246.948059 164.411758,245.244537 150.523621,244.425690 
	C153.232132,247.600784 156.470047,247.884109 159.507523,249.945465 
M270.574005,112.918358 
	C268.059967,109.725464 265.545929,106.532578 263.031891,103.339684 
	C262.717834,103.525070 262.403748,103.710449 262.089691,103.895836 
	C266.311249,116.476379 270.532806,129.056915 275.085114,142.623077 
	C275.675507,138.088684 276.248291,134.679276 276.538910,131.245972 
	C277.100861,124.607826 276.536133,118.258270 270.574005,112.918358 
M273.314240,165.080978 
	C268.626495,176.649246 262.156921,187.482758 258.940125,199.770584 
	C262.763855,195.588226 268.379211,193.593338 271.013550,188.147217 
	C274.566589,180.801880 273.534607,172.921982 274.478851,165.274063 
	C274.540619,164.773605 274.234619,164.311066 273.314240,165.080978 
M224.666153,59.623032 
	C221.568726,59.916119 223.207550,61.279053 224.198532,62.158291 
	C232.362518,69.401917 240.577240,76.588356 249.132111,84.104469 
	C245.050461,71.683769 237.707581,63.224213 224.666153,59.623032 
M82.774857,110.440002 
	C83.562363,106.728218 85.868973,103.317223 85.355530,98.948807 
	C74.888466,108.166519 71.887718,119.390213 76.577095,131.411163 
	C79.372627,124.763588 80.459442,117.834290 82.774857,110.440002 
M99.194481,218.027420 
	C104.994759,229.688614 114.897713,234.903351 127.657227,235.802414 
	C118.981117,229.582306 110.374893,223.394394 101.742889,217.242645 
	C100.409828,216.292603 100.355103,216.369400 99.194481,218.027420 
M193.144302,50.016582 
	C193.554810,49.856827 194.229446,49.887840 193.961655,49.167870 
	C193.869980,48.921425 193.472931,48.748360 193.180634,48.622555 
	C181.459518,43.577862 170.018997,44.428616 158.069458,50.593361 
	C170.057556,50.120651 181.299927,51.268166 193.144302,50.016582 
M114.589638,69.054504 
	C120.555626,65.461227 126.521614,61.867954 133.261108,57.808800 
	C121.327393,59.074913 111.959938,62.838150 106.301041,73.403214 
	C109.478607,72.803406 111.455681,70.597282 114.589638,69.054504 
z"/>
</svg>